<?xml version="1.0" encoding="UTF-8"?>
<svg width="215px" height="149px" viewBox="0 0 215 149" version="1.1" xmlns="http://www.w3.org/2000/svg" xmlns:xlink="http://www.w3.org/1999/xlink">
    <!-- Generator: Sketch 50.2 (55047) - http://www.bohemiancoding.com/sketch -->
    <title>Logo</title>
    <desc>Created with Sketch.</desc>
    <defs></defs>
    <g id="Page-1" stroke="none" stroke-width="1" fill="none" fill-rule="evenodd">
        <g id="16879-NQUZUE" transform="translate(-102.000000, -122.000000)" fill="#4A4A4A">
            <g id="Logo" transform="translate(102.000000, 122.000000)">
                <path d="M169.761,15.804 L194.483,15.804 C195.392,15.804 196.136,16.733 196.136,17.869 L196.136,20.622 L168.108,20.622 L168.108,17.869 C168.108,16.733 168.851,15.804 169.761,15.804" id="Fill-11"></path>
                <path d="M86.004,82.143 L93.757,33.039 C84.515,35.671 75.937,40.986 69.307,48.875 C66.008,52.8 63.425,57.08 61.537,61.58 L86.004,82.143" id="Fill-12"></path>
                <path d="M117.319,61.628 L155.612,93.811 C159.482,79.209 156.573,63.333 147.301,51.006 L117.319,61.628" id="Fill-13"></path>
                <path d="M95.106,63.115 L143.106,46.11 C141.975,44.956 140.795,43.846 139.533,42.786 C128.156,33.224 113.719,29.646 100.07,31.686 L95.106,63.115" id="Fill-14"></path>
                <path d="M68.33,111.126 L98.126,100.205 L59.43,67.683 C55.238,82.985 58.515,99.764 68.795,112.402 L68.33,111.126" id="Fill-15"></path>
                <path d="M129.117,79.406 L120.273,129.09 C129.857,126.557 138.778,121.17 145.628,113.019 C149.016,108.988 151.652,104.572 153.548,99.939 L129.117,79.406" id="Fill-16"></path>
                <path d="M119.552,98.775 L72.174,116.137 C73.194,117.161 74.262,118.161 75.388,119.107 C86.511,128.455 100.548,132.095 113.931,130.344 L119.552,98.775" id="Fill-17"></path>
                <path d="M214.714,119.8 L214.714,132.535 C214.714,141.114 207.696,148.131 199.117,148.131 L15.813,148.131 C7.236,148.131 0.217,141.114 0.217,132.535 L0.217,119.8 L3.723,119.8 L3.723,132.535 C3.723,139.177 9.171,144.625 15.813,144.625 L199.117,144.625 C205.761,144.625 211.208,139.178 211.208,132.535 L211.208,119.8 L214.714,119.8 Z M86.504,0.338 L128.427,0.338 C142.326,0.338 154.037,10.171 156.952,23.224 L199.117,23.224 C207.696,23.224 214.714,30.241 214.714,38.82 L214.714,52.175 L211.208,52.175 L211.208,38.82 C211.208,32.177 205.761,26.73 199.117,26.73 L154.142,26.73 L153.53,23.988 C150.919,12.296 140.437,3.844 128.427,3.844 L86.504,3.844 C74.494,3.844 64.012,12.296 61.4,23.988 L60.788,26.73 L15.813,26.73 C9.171,26.73 3.723,32.178 3.723,38.82 L3.723,52.175 L0.217,52.175 L0.217,38.82 C0.217,30.241 7.236,23.224 15.813,23.224 L57.979,23.224 C60.894,10.171 72.605,0.338 86.504,0.338 Z" id="Fill-18"></path>
                <path d="M22.852,15.212 L47.574,15.212 C48.484,15.212 49.227,16.141 49.227,17.277 L49.227,20.031 L21.199,20.031 L21.199,17.277 C21.199,16.141 21.943,15.212 22.852,15.212" id="Fill-19"></path>
                <path d="M146.347,119.832 C136.398,129.782 122.65,135.937 107.467,135.937 C92.283,135.937 78.536,129.782 68.586,119.832 C58.636,109.882 52.482,96.135 52.482,80.951 C52.482,65.768 58.636,52.021 68.586,42.071 C78.536,32.121 92.283,25.966 107.467,25.966 C122.65,25.966 136.398,32.121 146.347,42.071 C156.297,52.021 162.452,65.768 162.452,80.951 C162.452,96.135 156.297,109.882 146.347,119.832 Z M107.467,134.408 C122.229,134.408 135.594,128.425 145.267,118.751 C154.94,109.078 160.924,95.713 160.924,80.951 C160.924,66.189 154.94,52.825 145.267,43.151 C135.594,33.478 122.229,27.494 107.467,27.494 C92.705,27.494 79.34,33.478 69.667,43.151 C59.993,52.825 54.01,66.189 54.01,80.951 C54.01,95.713 59.993,109.078 69.667,118.751 C79.34,128.425 92.705,134.408 107.467,134.408 Z" id="Fill-20"></path>
            </g>
        </g>
    </g>
</svg>